<svg width="18" height="19" viewBox="0 0 18 19" fill="none" xmlns="http://www.w3.org/2000/svg">
<path d="M14.1198 18.0768H4.0484C1.91792 18.0768 0.174805 16.3337 0.174805 14.2032V14.0741L0.562164 3.74448C0.626724 1.614 2.36984 0 4.43576 0H13.7324C15.7983 0 17.5414 1.614 17.606 3.74448L17.9934 14.0741C18.0579 15.107 17.6706 16.0754 16.9604 16.8502C16.2502 17.6249 15.2818 18.0768 14.2489 18.0768C14.2489 18.0768 14.1843 18.0768 14.1198 18.0768ZM4.43576 1.2912C3.01544 1.2912 1.91792 2.38872 1.85336 3.74448L1.466 14.2032C1.466 15.6235 2.62808 16.7856 4.0484 16.7856H14.2489C14.959 16.7856 15.6046 16.4628 16.0566 15.9463C16.5085 15.4298 16.7667 14.7842 16.7667 14.0741L16.3794 3.74448C16.3148 2.32416 15.2173 1.2912 13.797 1.2912H4.43576Z" fill="black"/>
<path d="M9.08365 7.74719C6.56581 7.74719 4.56445 5.74583 4.56445 3.22799C4.56445 2.84063 4.82269 2.58239 5.21005 2.58239C5.59741 2.58239 5.85565 2.84063 5.85565 3.22799C5.85565 5.03567 7.27597 6.45599 9.08365 6.45599C10.8913 6.45599 12.3116 5.03567 12.3116 3.22799C12.3116 2.84063 12.5699 2.58239 12.9572 2.58239C13.3446 2.58239 13.6028 2.84063 13.6028 3.22799C13.6028 5.74583 11.6015 7.74719 9.08365 7.74719Z" fill="black"/>
</svg>
