<svg width="16" height="18" viewBox="0 0 16 18" fill="none" xmlns="http://www.w3.org/2000/svg">
<path d="M7.74697 9.53887C5.11756 9.53887 2.97754 7.39885 2.97754 4.76943C2.97754 2.14002 5.11756 0 7.74697 0C10.3764 0 12.5164 2.14002 12.5164 4.76943C12.5164 7.39885 10.3764 9.53887 7.74697 9.53887ZM7.74697 1.2442C5.80602 1.2442 4.22174 2.82848 4.22174 4.76943C4.22174 6.71039 5.80602 8.29467 7.74697 8.29467C9.68793 8.29467 11.2722 6.71039 11.2722 4.76943C11.2722 2.82848 9.68793 1.2442 7.74697 1.2442Z" fill="black"/>
<path d="M14.8723 17.8335C14.5322 17.8335 14.2502 17.5515 14.2502 17.2114C14.2502 14.3498 11.3306 12.0273 7.74725 12.0273C4.16392 12.0273 1.2442 14.3498 1.2442 17.2114C1.2442 17.5515 0.962182 17.8335 0.6221 17.8335C0.282019 17.8335 0 17.5515 0 17.2114C0 13.6696 3.47546 10.7831 7.74725 10.7831C12.019 10.7831 15.4944 13.6696 15.4944 17.2114C15.4944 17.5515 15.2124 17.8335 14.8723 17.8335Z" fill="black"/>
</svg>
